<?xml version="1.0" standalone="no"?>
<!DOCTYPE svg PUBLIC "-//W3C//DTD SVG 20010904//EN"
 "http://www.w3.org/TR/2001/REC-SVG-20010904/DTD/svg10.dtd">
<svg version="1.0" xmlns="http://www.w3.org/2000/svg"
 width="16.000000pt" height="16.000000pt" viewBox="0 0 16.000000 16.000000"
 preserveAspectRatio="xMidYMid meet">
<metadata>
Created by potrace 1.11, written by Peter Selinger 2001-2013
</metadata>
<g transform="translate(0.000000,16.000000) scale(0.006154,-0.006154)"
fill="#000000" stroke="none">
<path d="M16 2584 c-14 -14 -16 -144 -16 -1284 0 -1140 2 -1270 16 -1284 14
-14 144 -16 1284 -16 1140 0 1270 2 1284 16 14 14 16 144 16 1284 0 1140 -2
1270 -16 1284 -14 14 -144 16 -1284 16 -1140 0 -1270 -2 -1284 -16z m1345
-182 c7 -34 29 -67 88 -136 115 -133 155 -227 131 -301 -10 -32 -62 -86 -106
-111 -19 -11 -19 -12 0 -65 10 -30 27 -63 37 -74 10 -11 21 -39 25 -62 6 -38
11 -44 43 -54 50 -16 59 -26 67 -67 4 -20 17 -45 30 -54 12 -10 26 -33 29 -51
4 -17 17 -43 30 -57 12 -14 28 -42 35 -63 7 -21 18 -41 26 -44 7 -2 18 -19 24
-37 6 -18 22 -44 35 -56 14 -13 25 -29 25 -35 0 -7 11 -27 25 -46 230 -309
279 -369 302 -369 9 0 13 -18 13 -64 l0 -64 -33 -6 c-52 -10 -109 -86 -121
-161 -17 -112 -25 -139 -42 -152 -14 -10 -86 -13 -334 -13 -368 0 -367 0 -329
69 13 24 30 55 38 69 7 13 16 62 19 108 2 46 10 88 16 93 20 16 177 61 215 61
20 0 42 -5 49 -12 14 -14 16 -110 2 -157 -11 -38 -24 -51 -56 -51 -11 0 -31
-11 -44 -25 -30 -32 -38 -32 -71 8 -32 36 -43 30 -55 -31 -11 -59 -5 -61 214
-56 108 3 205 4 215 4 12 0 17 8 17 29 0 17 11 43 27 62 27 31 27 32 9 62 -17
31 -17 31 8 50 33 23 33 44 2 59 -59 26 -36 73 31 64 31 -4 46 -1 58 10 14 15
14 19 -1 43 -9 14 -24 35 -34 46 -9 11 -34 47 -55 80 -45 71 -100 156 -132
206 -13 19 -23 40 -23 46 0 6 -11 24 -24 40 -13 15 -28 44 -35 64 -6 20 -21
45 -31 54 -11 10 -20 28 -20 40 0 12 -11 39 -25 60 -14 20 -28 57 -32 81 -4
34 -10 44 -22 42 -21 -4 -56 -59 -81 -126 -11 -32 -29 -73 -39 -92 -10 -19
-22 -46 -26 -60 -7 -27 -107 -238 -131 -280 -9 -14 -25 -45 -36 -70 -11 -25
-29 -56 -39 -69 -42 -54 -41 -98 6 -251 25 -79 22 -171 -5 -216 -12 -19 -32
-41 -44 -48 -24 -16 -210 -60 -306 -74 -69 -10 -226 -47 -272 -64 -16 -6 -28
-17 -28 -24 0 -11 -19 -14 -85 -14 -59 0 -85 4 -85 12 0 16 -41 58 -57 58 -10
0 -13 28 -13 125 0 101 3 125 14 125 8 0 28 26 46 57 53 94 256 282 444 413
90 62 126 94 126 111 0 18 -10 19 -129 19 -142 0 -163 5 -203 45 -32 32 -36
75 -14 129 20 49 133 164 276 281 143 118 230 198 254 237 17 26 17 27 -5 38
-17 10 -34 10 -75 0 -96 -23 -177 3 -197 64 -7 22 -4 41 13 85 27 65 63 116
165 226 103 112 145 164 145 182 0 9 8 30 19 47 10 17 29 59 42 92 23 61 23
62 36 36 8 -14 18 -46 24 -70z"/>
<path d="M1293 2259 c-16 -23 -36 -56 -46 -73 -9 -17 -33 -51 -52 -76 -19 -25
-44 -63 -56 -85 -12 -22 -30 -52 -40 -67 -52 -73 13 -138 137 -138 29 0 44 -5
48 -16 11 -30 6 -51 -19 -74 -14 -13 -25 -32 -25 -43 0 -11 -14 -36 -31 -56
-98 -115 -133 -155 -216 -243 -114 -120 -153 -173 -153 -208 0 -56 74 -86 191
-77 63 5 81 3 94 -9 8 -9 15 -19 15 -24 0 -42 -96 -165 -221 -284 -46 -44
-115 -109 -153 -145 -80 -76 -128 -166 -130 -243 -1 -37 5 -53 30 -84 20 -25
43 -41 65 -46 56 -13 268 8 318 31 81 38 96 49 107 77 12 28 10 37 -15 90 -16
32 -40 70 -55 83 -31 30 -33 64 -6 111 11 19 32 58 45 85 14 28 29 57 35 65
15 23 80 166 80 176 0 5 14 36 30 69 17 33 30 66 30 74 0 8 11 37 24 65 13 28
28 69 32 91 4 22 15 58 24 81 10 22 23 67 30 100 10 46 20 65 48 91 l35 33
-14 42 c-7 24 -26 57 -41 74 -16 17 -28 36 -28 41 0 5 -13 29 -29 54 -27 40
-35 65 -32 96 0 6 16 20 35 31 23 13 39 34 51 65 17 44 17 47 -5 114 -13 37
-31 80 -42 95 -10 15 -25 43 -33 62 -9 20 -20 36 -25 36 -5 0 -22 -19 -37 -41z"/>
</g>
</svg>
